<svg width="46" height="46" viewBox="0 0 46 46" fill="none" xmlns="http://www.w3.org/2000/svg">
<path fill-rule="evenodd" clip-rule="evenodd" d="M23 5.75C18.2365 5.75 14.375 9.61154 14.375 14.375C14.375 19.1385 18.2365 23 23 23C27.7635 23 31.625 19.1385 31.625 14.375C31.625 9.61154 27.7635 5.75 23 5.75ZM10.5417 14.375C10.5417 7.49445 16.1194 1.91667 23 1.91667C29.8805 1.91667 35.4583 7.49445 35.4583 14.375C35.4583 21.2555 29.8805 26.8333 23 26.8333C16.1194 26.8333 10.5417 21.2555 10.5417 14.375Z" fill="#BAD1FF"/>
<path fill-rule="evenodd" clip-rule="evenodd" d="M23 26.8333C14.6338 26.8333 7.8417 32.0896 6.15862 38.8344C6.07347 39.1757 6.15872 39.4729 6.40273 39.7363C6.66985 40.0246 7.12469 40.25 7.66667 40.25H38.3333C38.8753 40.25 39.3302 40.0246 39.5973 39.7363C39.8413 39.4729 39.9265 39.1757 39.8414 38.8344C38.1583 32.0896 31.3662 26.8333 23 26.8333ZM2.43933 37.9064C4.59938 29.2501 13.0937 23 23 23C32.9063 23 41.4006 29.2501 43.5607 37.9064C44.4567 41.4971 41.3369 44.0833 38.3333 44.0833H7.66667C4.66313 44.0833 1.54331 41.4971 2.43933 37.9064Z" fill="#BAD1FF"/>
</svg>
